<mxfile host="app.diagrams.net" modified="2024-06-02T12:32:35.933Z" agent="Mozilla/5.0 (Macintosh; Intel Mac OS X 10_15_7) AppleWebKit/537.36 (KHTML, like Gecko) Chrome/124.0.0.0 Safari/537.36" version="24.4.0" etag="sXoE2PeVcnNDAT30-r9C" type="github">
  <diagram name="第 1 页" id="sBTiRDgbMLgQZVqpxMYv">
    <mxGraphModel>
      <root>
        <mxCell id="0" />
        <mxCell id="1" parent="0" />
      </root>
    </mxGraphModel>
  </diagram>
</mxfile>
